<svg width="301" height="349" viewBox="0 0 301 349" fill="none" xmlns="http://www.w3.org/2000/svg">
<path d="M149.84 291.9C156.51 281.48 165.25 267.19 170.54 256.03C179.99 236.08 182.62 220.33 182.62 220.33C182.62 220.33 157.37 208.27 149.02 200.91C131.17 185.16 125.4 158.61 125.4 158.61C148.29 185.47 160.58 189.36 184.73 197.08C187.73 198.04 186.04 162.76 181.12 134.2C179.52 124.89 173.02 105.5 166.69 91.73C165.71 89.6 165.31 88.25 165.31 88.25C193.14 110 203.64 147.89 207.84 206.69C210.45 243.18 201.17 274.68 194.55 291.92H149.84V291.9Z" fill="white"/>
<path d="M104.36 212C95.27 219.64 79.2 225.16 79.2 225.16C79.2 225.16 85.33 252.07 92.26 267.7C95.55 275.12 100.67 284.3 105.14 291.9H77.06C72.96 277.94 67.29 255.53 64.5 230.67C59.34 184.79 67.65 155.37 91.8 140.48C91.8 140.48 82.26 155.88 79.36 171.49C77.25 182.91 75.41 209.99 77.61 209.24C95.33 203.19 110.56 195.28 127.36 174.24C127.36 174.25 118.13 200.41 104.36 212Z" fill="white"/>
<path d="M137.52 121.63C139.29 120.84 152.93 129.04 158.31 135C163.3 140.52 165.74 146.88 166.62 152.49C167.32 156.96 166.62 160.08 166.21 161.27C165.79 162.45 165.16 164.19 163.22 163.54C161.28 162.89 152.86 160.25 147.93 154.92C143.22 149.82 140.13 141.92 139.33 138.32C138.53 134.72 135.75 122.42 137.52 121.63Z" fill="white"/>
<path d="M112.31 152.87C113.34 153.7 110.97 165.8 108.08 171.66C105.4 177.1 100.66 182 97.64 184.04C94.52 186.15 92.17 187.09 91.21 187.29C90.25 187.49 88.83 187.78 88.8 186.27C88.77 184.76 88.32 177.93 91.04 172.94C93.76 167.94 98.38 162.69 100.76 160.73C103.15 158.76 111.28 152.04 112.31 152.87Z" fill="white"/>
<path d="M170.36 40.84C170.36 40.84 163.69 51.51 162.84 57.02C162.05 62.13 164.27 68.55 165.14 69.93C166.78 72.53 169.24 74.4 169.24 74.4C169.24 74.4 168.41 62.32 168.56 58.38C168.71 54.44 170.45 42.96 170.45 42.96C170.45 42.96 169.51 55.06 169.74 58.47C169.98 61.88 171.31 74.4 171.31 74.4C171.31 74.4 178.57 67.6 179.06 62.83C179.54 58.06 177.54 52.73 176.48 50.48C175.43 48.22 170.36 40.84 170.36 40.84Z" fill="white"/>
<path d="M223.95 80.98C223.95 80.98 211.06 78.23 205.09 79.34C199.55 80.37 193.43 84.81 192.22 86.14C189.93 88.66 188.63 91.73 188.63 91.73C188.63 91.73 201.03 86.65 205.18 85.41C209.33 84.17 221.77 81.82 221.77 81.82C221.77 81.82 208.89 85.17 205.4 86.6C201.9 88.04 189.18 93.76 189.18 93.76C189.18 93.76 198.18 98.46 203.29 97.25C208.4 96.04 213.43 92.2 215.51 90.37C217.58 88.54 223.95 80.98 223.95 80.98Z" fill="white"/>
<path d="M209.31 38.78C209.31 38.78 196.92 43.26 192.65 47.24C188.69 50.94 186.37 57.66 186.19 59.36C185.85 62.56 186.67 65.7 186.67 65.7C186.67 65.7 193.81 55.21 196.48 52.06C199.15 48.91 208.01 40.59 208.01 40.59C208.01 40.59 199.4 49.94 197.39 52.9C195.38 55.86 188.38 67.04 188.38 67.04C188.38 67.04 198.76 66.14 202.25 62.53C205.74 58.91 207.53 53.23 208.12 50.69C208.71 48.13 209.31 38.78 209.31 38.78Z" fill="white"/>
<path d="M190.08 6.94C190.08 6.94 192.35 14.94 191.88 18.59C191.45 21.98 188.85 25.65 188.05 26.36C186.53 27.71 184.62 28.45 184.62 28.45C184.62 28.45 187.37 20.93 187.99 18.4C188.62 15.87 189.62 8.26 189.62 8.26C189.62 8.26 188 16.12 187.22 18.24C186.44 20.36 183.3 28.07 183.3 28.07C183.3 28.07 179.94 22.42 180.5 19.3C181.07 16.18 183.32 13.17 184.41 11.93C185.51 10.69 190.08 6.94 190.08 6.94Z" fill="white"/>
<path d="M116.52 32.45C116.52 32.45 124.78 33.43 127.97 35.27C130.93 36.97 133.32 40.78 133.67 41.8C134.34 43.72 134.28 45.76 134.28 45.76C134.28 45.76 128.39 40.33 126.3 38.78C124.21 37.23 117.57 33.38 117.57 33.38C117.57 33.38 124.2 37.9 125.86 39.43C127.52 40.96 133.42 46.83 133.42 46.83C133.42 46.83 126.91 47.76 124.25 46.04C121.59 44.32 119.67 41.08 118.95 39.6C118.22 38.11 116.52 32.45 116.52 32.45Z" fill="white"/>
<path d="M246.1 102.52C246.1 102.52 240.05 96.82 236.59 95.55C233.38 94.37 228.93 94.98 227.93 95.37C226.03 96.09 224.5 97.45 224.5 97.45C224.5 97.45 232.44 98.48 234.97 99.09C237.5 99.7 244.72 102.31 244.72 102.31C244.72 102.31 237 100.13 234.76 99.84C232.52 99.55 224.23 98.79 224.23 98.79C224.23 98.79 227.69 104.38 230.72 105.31C231.83 105.65 233.03 105.79 234.18 105.8C236.18 105.83 238.05 105.49 239.06 105.24C240.67 104.84 246.1 102.52 246.1 102.52Z" fill="white"/>
<path d="M130.84 101.54C130.84 101.54 136.42 95.38 139.77 93.85C142.88 92.43 147.36 92.69 148.39 92.99C150.34 93.56 151.97 94.79 151.97 94.79C151.97 94.79 144.13 96.44 141.66 97.24C139.18 98.04 132.2 101.22 132.2 101.22C132.2 101.22 139.73 98.44 141.94 97.98C144.15 97.52 152.35 96.11 152.35 96.11C152.35 96.11 149.33 101.95 146.39 103.12C143.44 104.29 139.7 103.97 138.07 103.71C136.45 103.43 130.84 101.54 130.84 101.54Z" fill="white"/>
<path d="M99.43 77.14C99.43 77.14 102.81 84.74 102.86 88.42C102.91 91.84 100.86 95.83 100.17 96.66C98.86 98.21 97.08 99.21 97.08 99.21C97.08 99.21 98.73 91.38 99 88.78C99.26 86.19 99.18 78.52 99.18 78.52C99.18 78.52 98.69 86.53 98.22 88.73C97.75 90.94 95.73 99.01 95.73 99.01C95.73 99.01 91.6 93.89 91.72 90.73C91.84 87.56 93.64 84.26 94.54 82.88C95.44 81.5 99.43 77.14 99.43 77.14Z" fill="white"/>
<path d="M50.23 73.46C50.23 73.46 57.49 75.29 60.12 77.31C62.57 79.18 64.25 82.85 64.45 83.8C64.82 85.59 64.53 87.41 64.53 87.41C64.53 87.41 59.91 81.88 58.22 80.25C56.54 78.62 51.06 74.41 51.06 74.41C51.06 74.41 56.45 79.21 57.75 80.77C59.05 82.33 63.64 88.26 63.64 88.26C63.64 88.26 57.72 88.33 55.55 86.49C53.38 84.64 52.04 81.53 51.57 80.13C51.09 78.72 50.23 73.46 50.23 73.46Z" fill="white"/>
<path d="M28.11 102.85C28.11 102.85 35.53 101.88 38.72 102.78C41.68 103.61 44.6 106.41 45.14 107.22C46.15 108.75 46.55 110.54 46.55 110.54C46.55 110.54 40.22 107.1 38.05 106.21C35.88 105.32 29.24 103.42 29.24 103.42C29.24 103.42 36.02 105.9 37.8 106.87C39.59 107.84 46.03 111.66 46.03 111.66C46.03 111.66 40.56 113.91 37.86 112.99C35.16 112.07 32.77 109.67 31.81 108.54C30.85 107.42 28.11 102.85 28.11 102.85Z" fill="white"/>
<path d="M27.62 138.7C27.62 138.7 32.5 134.06 35.3 133.02C37.9 132.05 41.5 132.54 42.32 132.84C43.86 133.42 45.11 134.51 45.11 134.51C45.11 134.51 38.68 135.37 36.63 135.87C34.58 136.37 28.75 138.51 28.75 138.51C28.75 138.51 35 136.72 36.81 136.48C38.62 136.24 45.34 135.6 45.34 135.6C45.34 135.6 42.55 140.14 40.1 140.9C37.65 141.67 34.64 141.19 33.34 140.87C32.03 140.57 27.62 138.7 27.62 138.7Z" fill="white"/>
<path d="M257.5 74.99C257.5 74.99 251.4 72.14 248.42 72.05C245.65 71.96 242.39 73.56 241.71 74.11C240.43 75.15 239.6 76.58 239.6 76.58C239.6 76.58 245.97 75.35 248.07 75.18C250.17 75 256.38 75.18 256.38 75.18C256.38 75.18 249.89 75.46 248.09 75.81C246.29 76.16 239.72 77.68 239.72 77.68C239.72 77.68 243.8 81.1 246.37 81.04C248.94 80.99 251.64 79.58 252.77 78.87C253.91 78.16 257.5 74.99 257.5 74.99Z" fill="white"/>
<path d="M215.74 7.02002C215.74 7.02002 209.67 9.93002 207.7 12.18C205.87 14.26 205.04 17.8 205.04 18.68C205.03 20.33 205.61 21.88 205.61 21.88C205.61 21.88 208.7 16.18 209.9 14.44C211.1 12.7 215.18 8.01002 215.18 8.01002C215.18 8.01002 211.28 13.21 210.41 14.82C209.54 16.43 206.55 22.47 206.55 22.47C206.55 22.47 211.78 21.48 213.37 19.46C214.96 17.44 215.58 14.46 215.75 13.14C215.92 11.81 215.74 7.02002 215.74 7.02002Z" fill="white"/>
<path d="M78.52 69.11C78.52 69.11 83.3 73.86 84.42 76.62C85.46 79.19 85.09 82.8 84.8 83.63C84.27 85.19 83.21 86.46 83.21 86.46C83.21 86.46 82.16 80.06 81.6 78.03C81.04 76 78.73 70.23 78.73 70.23C78.73 70.23 80.71 76.42 81 78.22C81.29 80.03 82.13 86.72 82.13 86.72C82.13 86.72 77.51 84.07 76.68 81.64C75.84 79.21 76.23 76.19 76.51 74.89C76.79 73.58 78.52 69.11 78.52 69.11Z" fill="white"/>
<path d="M110.35 84.64C110.35 84.64 114.05 79.01 116.54 77.37C118.85 75.84 122.47 75.49 123.34 75.61C124.97 75.82 126.43 76.61 126.43 76.61C126.43 76.61 120.36 78.91 118.48 79.86C116.6 80.81 111.4 84.22 111.4 84.22C111.4 84.22 117.08 81.06 118.79 80.41C120.5 79.76 126.89 77.62 126.89 77.62C126.89 77.62 125.2 82.67 122.99 83.97C120.78 85.27 117.74 85.49 116.4 85.47C115.07 85.46 110.35 84.64 110.35 84.64Z" fill="white"/>
<path d="M100.97 55.18C100.97 55.18 107.07 52.31 110.05 52.21C112.82 52.11 116.09 53.71 116.77 54.25C118.05 55.28 118.89 56.71 118.89 56.71C118.89 56.71 112.52 55.5 110.42 55.33C108.32 55.16 102.1 55.35 102.1 55.35C102.1 55.35 108.59 55.62 110.39 55.96C112.19 56.3 118.76 57.81 118.76 57.81C118.76 57.81 114.69 61.24 112.12 61.19C109.55 61.15 106.85 59.74 105.72 59.03C104.57 58.34 100.97 55.18 100.97 55.18Z" fill="white"/>
<path d="M160.87 0.980011C160.87 0.980011 166.68 5.69001 168.23 8.62001C169.67 11.34 169.65 15.38 169.43 16.33C169.01 18.11 167.99 19.64 167.99 19.64C167.99 19.64 166.12 12.68 165.27 10.5C164.42 8.31001 161.22 2.19001 161.22 2.19001C161.22 2.19001 164.09 8.81001 164.62 10.78C165.15 12.74 166.82 20.05 166.82 20.05C166.82 20.05 161.42 17.63 160.22 15.04C159.02 12.45 159.12 9.07001 159.28 7.59001C159.45 6.11001 160.87 0.980011 160.87 0.980011Z" fill="white"/>
<path d="M231.91 23.11C231.91 23.11 224.09 25.95 221.4 28.46C218.9 30.8 217.45 35.04 217.34 36.11C217.13 38.13 217.65 40.11 217.65 40.11C217.65 40.11 222.14 33.48 223.83 31.5C225.51 29.51 231.1 24.25 231.1 24.25C231.1 24.25 225.68 30.16 224.41 32.03C223.14 33.9 218.73 40.96 218.73 40.96C218.73 40.96 225.28 40.38 227.48 38.1C229.68 35.81 230.8 32.23 231.17 30.62C231.54 29.01 231.91 23.11 231.91 23.11Z" fill="white"/>
<path d="M47.45 150.45C47.45 150.45 53.48 144.72 56.93 143.44C60.13 142.25 64.59 142.85 65.59 143.23C67.49 143.95 69.03 145.3 69.03 145.3C69.03 145.3 61.09 146.36 58.56 146.97C56.03 147.59 48.82 150.23 48.82 150.23C48.82 150.23 56.53 148.02 58.77 147.73C61.01 147.43 69.3 146.65 69.3 146.65C69.3 146.65 65.86 152.25 62.83 153.2C59.8 154.14 56.09 153.55 54.49 153.16C52.89 152.76 47.45 150.45 47.45 150.45Z" fill="white"/>
<path d="M138.83 18.91C138.83 18.91 149.38 22.31 153.08 25.53C156.52 28.52 158.66 34.11 158.86 35.53C159.24 38.21 158.64 40.87 158.64 40.87C158.64 40.87 152.33 32.26 150 29.7C147.66 27.14 139.97 20.4 139.97 20.4C139.97 20.4 147.48 28.01 149.26 30.44C151.04 32.87 157.25 42.06 157.25 42.06C157.25 42.06 148.5 41.61 145.46 38.67C142.42 35.73 140.75 31.01 140.18 28.89C139.61 26.75 138.83 18.91 138.83 18.91Z" fill="white"/>
<path d="M49.12 122.79C49.12 122.79 59.04 119.91 63.58 120.47C67.79 120.99 72.36 124.18 73.26 125.17C74.95 127.04 75.88 129.41 75.88 129.41C75.88 129.41 66.52 126.06 63.38 125.29C60.24 124.53 50.78 123.34 50.78 123.34C50.78 123.34 60.55 125.3 63.18 126.25C65.82 127.2 75.41 131.05 75.41 131.05C75.41 131.05 68.42 135.26 64.54 134.58C60.66 133.9 56.91 131.12 55.36 129.78C53.81 128.44 49.12 122.79 49.12 122.79Z" fill="white"/>
<path d="M127.25 58.69C127.25 58.69 140.87 59.63 146.25 62.39C151.24 64.95 155.46 70.99 156.12 72.63C157.37 75.73 157.44 79.08 157.44 79.08C157.44 79.08 147.36 70.65 143.8 68.28C140.25 65.9 129.06 60.12 129.06 60.12C129.06 60.12 140.29 67 143.13 69.38C145.97 71.76 156.12 80.91 156.12 80.91C156.12 80.91 145.53 82.96 141.03 80.34C136.53 77.73 133.13 72.58 131.82 70.21C130.5 67.84 127.25 58.69 127.25 58.69Z" fill="white"/>
<path d="M246.47 50.5C246.47 50.5 234.99 48.84 230.02 50.17C225.41 51.4 220.82 55.66 219.98 56.91C218.39 59.26 217.73 62.03 217.73 62.03C217.73 62.03 227.62 56.84 231 55.5C234.38 54.16 244.71 51.37 244.71 51.37C244.71 51.37 234.15 55.07 231.36 56.54C228.57 58.01 218.5 63.79 218.5 63.79C218.5 63.79 226.94 67.39 231.14 66.03C235.35 64.67 239.1 61 240.61 59.26C242.13 57.51 246.47 50.5 246.47 50.5Z" fill="white"/>
<path d="M127.08 128.92C127.08 128.92 117.47 125.39 112.94 125.63C108.74 125.85 104 128.7 103.05 129.62C101.25 131.36 100.17 133.63 100.17 133.63C100.17 133.63 109.65 130.95 112.81 130.41C115.97 129.87 125.4 129.34 125.4 129.34C125.4 129.34 115.61 130.61 112.93 131.37C110.26 132.13 100.51 135.28 100.51 135.28C100.51 135.28 107.14 139.93 111.01 139.52C114.89 139.11 118.8 136.62 120.42 135.4C122.05 134.19 127.08 128.92 127.08 128.92Z" fill="white"/>
<path d="M48.91 93.77C48.91 93.77 57.53 96.01 60.65 98.42C63.54 100.66 65.52 105.04 65.75 106.17C66.18 108.3 65.82 110.46 65.82 110.46C65.82 110.46 60.36 103.85 58.37 101.9C56.38 99.95 49.89 94.9 49.89 94.9C49.89 94.9 56.27 100.66 57.8 102.53C59.34 104.4 64.75 111.48 64.75 111.48C64.75 111.48 57.71 111.52 55.14 109.31C52.57 107.09 51 103.38 50.45 101.71C49.9 100.02 48.91 93.77 48.91 93.77Z" fill="white"/>
<path d="M74.85 93.32C74.85 93.32 83.16 100.2 85.35 104.46C87.38 108.41 87.3 114.23 86.97 115.59C86.34 118.15 84.84 120.34 84.84 120.34C84.84 120.34 82.25 110.28 81.06 107.11C79.87 103.94 75.35 95.07 75.35 95.07C75.35 95.07 79.39 104.67 80.12 107.51C80.85 110.35 83.15 120.91 83.15 120.91C83.15 120.91 75.4 117.34 73.71 113.59C72.02 109.84 72.21 104.96 72.47 102.83C72.72 100.69 74.85 93.32 74.85 93.32Z" fill="white"/>
<path d="M121.91 95.99C121.91 95.99 111.31 98.01 107.34 100.68C103.66 103.16 100.91 108.3 100.55 109.65C99.86 112.2 100.12 114.84 100.12 114.84C100.12 114.84 107.25 107.28 109.81 105.08C112.38 102.88 120.62 97.29 120.62 97.29C120.62 97.29 112.45 103.75 110.44 105.88C108.43 108.01 101.32 116.15 101.32 116.15C101.32 116.15 109.83 116.76 113.12 114.29C116.41 111.82 118.6 107.45 119.4 105.47C120.22 103.48 121.91 95.99 121.91 95.99Z" fill="white"/>
<path d="M232.1 130.77C232.1 130.77 227.91 122.61 224.78 120.01C221.88 117.6 217.03 116.6 215.84 116.62C213.6 116.67 211.51 117.51 211.51 117.51C211.51 117.51 219.39 121.51 221.8 123.08C224.21 124.65 230.75 130.03 230.75 130.03C230.75 130.03 223.53 124.91 221.31 123.79C219.09 122.66 210.75 118.81 210.75 118.81C210.75 118.81 212.29 125.9 215.09 127.99C217.9 130.08 221.98 130.82 223.79 131C225.59 131.18 232.1 130.77 232.1 130.77Z" fill="white"/>
<path d="M7.68 334.43C7.68 336.88 8.4 337.2 10.31 337.45C10.85 337.52 10.99 337.7 10.99 338.31C10.99 338.63 10.85 338.96 10.34 338.96C9.8 338.96 8.04 338.49 5.95 338.49C3.86 338.49 2.1 338.96 1.56 338.96C1.06 338.96 0.910004 338.64 0.910004 338.31C0.910004 337.95 1.02 337.55 1.49 337.45C3.43 337.05 4.23 336.87 4.23 334.43V315.9C4.23 315 3.65 314.68 3.15 314.6L1.35 314.38C1.1 314.34 1.06 314.13 1.06 313.41C1.06 312.76 1.2 312.76 1.64 312.76C2.07 312.76 2.68 312.87 3.58 312.98C4.44 313.12 5.6 313.23 7.11 313.23H8.51C9.91 313.23 11.35 313.16 12.69 313.12C14.02 313.05 15.25 313.01 16.15 313.01C16.37 313.01 16.51 313.08 16.51 313.26C16.51 314.41 17.01 316.75 17.01 317.51C17.01 318.05 16.72 318.3 15.93 318.3C15.35 318.3 15.03 317.76 14.85 316.86C14.6 315.56 14.31 314.95 12.65 314.95H7.68V324.81H12.5C13.72 324.81 14.23 324.31 14.34 323.55C14.52 322.43 14.63 322.18 15.42 322.18C15.89 322.18 16.28 322.29 16.28 322.79C16.28 323.65 16.06 324.52 16.06 325.6C16.06 326.25 16.28 327.15 16.28 328.05C16.28 328.95 16.03 329.06 15.56 329.06C15.02 329.06 14.66 328.92 14.52 328.48C14.16 327.18 13.76 326.75 12.58 326.75H7.68V334.43V334.43Z" fill="white"/>
<path d="M31.3 333.96C31.3 336.98 33.75 336.73 33.75 337.13C33.75 337.42 32.78 338.97 31.48 338.97C30.22 338.97 29.03 337.35 28.49 336.38C26.98 338.11 25.21 338.97 22.87 338.97C19.95 338.97 17.9 337.31 17.9 334.65C17.9 330.51 22.94 329.47 28.27 328.57V327.67C28.27 324.47 26.51 324 24.35 324C23.52 324 22.87 324.14 22.77 324.29C21.69 325.69 21.83 326.67 20.93 326.67C20.17 326.67 19.85 326.42 19.85 325.91C19.85 325.4 20.46 323.57 20.75 322.53C20.82 322.24 23.63 322.06 24.42 322.06C29.39 322.06 31.3 323.68 31.3 327.42V333.96V333.96ZM28.28 330.83C28.28 330.47 28.17 330.36 27.81 330.36C27.34 330.36 21.15 330.94 21.15 334.21C21.15 336.01 22.48 336.8 24.14 336.8C26.12 336.8 28.28 335.32 28.28 333.31V330.83Z" fill="white"/>
<path d="M37.83 325.76C37.83 325.33 37.69 325.22 35.92 325.22C35.63 325.22 35.52 325 35.52 324.61C35.52 324.07 35.63 324.03 35.84 323.93L40.09 322.06C40.41 321.92 40.59 321.84 40.74 321.84C40.99 321.84 41.35 322.42 41.35 322.92C41.35 323.21 40.85 323.39 40.85 324.29V325.15C42.36 323.42 44.49 322.05 46.57 322.05C48.19 322.05 50.24 322.63 51.39 325.4C52.65 324.03 54.99 322.05 57.37 322.05C61.37 322.05 63.09 324.43 63.09 330.65V334.79C63.09 336.66 63.2 336.81 65.43 337.45C65.68 337.52 65.79 337.81 65.79 338.1C65.79 338.6 65.65 338.96 65.21 338.96C64.67 338.96 63.23 338.49 61.57 338.49C59.91 338.49 58.47 338.96 57.93 338.96C57.5 338.96 57.35 338.6 57.35 338.1C57.35 337.81 57.46 337.52 57.71 337.45C59.94 336.8 60.05 336.66 60.05 334.79V331.91C60.05 326.76 58.93 324.64 56.23 324.64C54.07 324.64 52.7 325.65 51.77 326.8C51.88 327.7 51.95 329.86 51.95 332.24V334.8C51.95 336.67 52.06 336.82 54.29 337.46C54.54 337.53 54.65 337.82 54.65 338.11C54.65 338.61 54.51 338.97 54.07 338.97C53.53 338.97 52.09 338.5 50.43 338.5C48.77 338.5 47.33 338.97 46.79 338.97C46.36 338.97 46.21 338.61 46.21 338.11C46.21 337.82 46.32 337.53 46.57 337.46C48.8 336.81 48.91 336.67 48.91 334.8V331.92C48.91 326.48 48.08 324.65 45.24 324.65C42.86 324.65 40.81 326.49 40.81 326.88V334.8C40.81 336.67 40.92 336.82 43.15 337.46C43.4 337.53 43.51 337.82 43.51 338.11C43.51 338.61 43.37 338.97 42.93 338.97C42.39 338.97 40.95 338.5 39.29 338.5C37.63 338.5 36.19 338.97 35.65 338.97C35.22 338.97 35.07 338.61 35.07 338.11C35.07 337.82 35.18 337.53 35.43 337.46C37.66 336.81 37.77 336.67 37.77 334.8V325.76H37.83Z" fill="white"/>
<path d="M69.99 325.76C69.99 325.33 69.85 325.22 68.08 325.22C67.79 325.22 67.68 325 67.68 324.61C67.68 324.07 67.79 324.03 68 323.93L72.25 322.06C72.57 321.92 72.75 321.84 72.9 321.84C73.15 321.84 73.51 322.42 73.51 322.92C73.51 323.21 73.01 323.39 73.01 324.29V334.8C73.01 336.67 73.12 336.82 75.35 337.46C75.6 337.53 75.71 337.82 75.71 338.11C75.71 338.61 75.57 338.97 75.13 338.97C74.59 338.97 73.15 338.5 71.49 338.5C69.83 338.5 68.39 338.97 67.85 338.97C67.42 338.97 67.27 338.61 67.27 338.11C67.27 337.82 67.38 337.53 67.63 337.46C69.86 336.81 69.97 336.67 69.97 334.8V325.76H69.99ZM71.68 313.52C72.8 313.52 73.73 314.46 73.73 315.57C73.73 316.68 72.79 317.62 71.68 317.62C70.56 317.62 69.63 316.68 69.63 315.57C69.63 314.46 70.56 313.52 71.68 313.52Z" fill="white"/>
<path d="M79.85 315.39C79.85 314.99 78.63 314.85 77.87 314.78C77.58 314.74 77.58 314.46 77.58 314.1C77.58 313.81 77.65 313.52 78.12 313.34L81.86 311.83C82.47 311.58 83.16 311.29 83.3 311.29C83.55 311.29 83.84 312.33 83.84 312.55C83.84 312.8 82.87 312.73 82.87 314.39V334.8C82.87 336.67 82.98 336.82 85.21 337.46C85.46 337.53 85.57 337.82 85.57 338.11C85.57 338.61 85.43 338.97 84.99 338.97C84.45 338.97 83.01 338.5 81.35 338.5C79.69 338.5 78.25 338.97 77.71 338.97C77.28 338.97 77.13 338.61 77.13 338.11C77.13 337.82 77.24 337.53 77.49 337.46C79.72 336.81 79.83 336.67 79.83 334.8V315.39H79.85Z" fill="white"/>
<path d="M88.54 327.67C86.88 324.39 86.49 324.03 85.37 323.57C85.12 323.46 85.05 323.32 85.05 323.03C85.05 322.6 85.27 322.06 85.66 322.06C85.98 322.06 87.68 322.53 89.08 322.53C90.7 322.53 91.96 322.06 92.32 322.06C92.64 322.06 92.82 322.82 92.82 323.1C92.82 323.39 92.71 323.46 92.39 323.57C90.95 324.04 90.77 324.25 90.77 324.58C90.77 324.87 91.24 325.91 91.92 327.32L95.99 335.74L100.17 327.75C100.82 326.45 101.25 325.52 101.25 324.8C101.25 324.37 100.78 324.12 99.38 323.58C99.13 323.47 98.91 323.29 98.91 323.04C98.91 322.75 99.16 322.07 99.45 322.07C99.81 322.07 101.39 322.54 102.62 322.54C103.77 322.54 105.1 322.07 105.36 322.07C105.72 322.07 105.94 322.93 105.94 323.15C105.94 323.29 105.83 323.37 105.36 323.58C104.71 323.87 104.28 324.37 103.85 325.16L96.25 339.09C92.43 346.07 90.27 348.52 87.14 348.52C85.77 348.52 85.7 348.3 85.7 347.58V346.21C85.7 345.78 85.74 345.71 85.99 345.71H87.39C90.13 345.71 91.64 343.48 94.27 338.83L88.54 327.67Z" fill="white"/>
<path d="M138.51 338.75C138.19 338.64 137.75 338.61 137.36 338.57C136.96 338.5 136.6 338.5 136.39 338.5C135.99 338.5 134.88 338.61 133.58 338.72C132.25 338.86 130.74 338.97 129.4 338.97C121.91 338.97 115.97 334.18 115.97 325.87C115.97 317.95 120.94 312.77 129.4 312.77C131.27 312.77 135.09 313.06 137.9 313.38C137.9 313.88 138.37 317.45 138.37 317.95C138.37 318.24 138.12 318.53 137.4 318.53C136.68 318.53 136.54 317.95 136.03 316.26C135.63 314.86 131.93 314.5 130.16 314.5C123.64 314.5 119.87 317.81 119.87 325.62C119.87 334.19 124.95 337.25 130.34 337.25C131.56 337.25 135.06 336.93 135.06 335.02V331.6C135.06 330.7 134.38 330.48 132.47 330.16C132.33 330.12 132.29 329.91 132.29 329.48C132.29 328.98 132.4 328.65 132.69 328.65C134.06 328.65 135.5 329.12 136.9 329.12C138.56 329.12 139.31 328.65 140.14 328.65C140.57 328.65 140.61 328.94 140.61 329.37C140.61 329.77 140.57 330.16 140.47 330.16C138.74 330.45 138.53 330.88 138.53 331.53V338.75H138.51Z" fill="white"/>
<path d="M144.49 325.76C144.49 325.33 144.35 325.22 142.58 325.22C142.29 325.22 142.18 325 142.18 324.61C142.18 324.07 142.29 324.03 142.5 323.93L146.75 322.06C147.07 321.92 147.25 321.84 147.4 321.84C147.65 321.84 148.01 322.42 148.01 322.92C148.01 323.21 147.51 323.39 147.51 324.29V334.8C147.51 336.67 147.62 336.82 149.85 337.46C150.1 337.53 150.21 337.82 150.21 338.11C150.21 338.61 150.07 338.97 149.63 338.97C149.09 338.97 147.65 338.5 145.99 338.5C144.33 338.5 142.89 338.97 142.35 338.97C141.92 338.97 141.77 338.61 141.77 338.11C141.77 337.82 141.88 337.53 142.13 337.46C144.36 336.81 144.47 336.67 144.47 334.8V325.76H144.49ZM146.18 313.52C147.3 313.52 148.23 314.46 148.23 315.57C148.23 316.68 147.29 317.62 146.18 317.62C145.06 317.62 144.13 316.68 144.13 315.57C144.13 314.46 145.06 313.52 146.18 313.52Z" fill="white"/>
<path d="M160.36 335.22L163.82 327.55C164.65 325.71 164.79 325.35 164.79 324.78C164.79 324.42 164.61 324.24 162.81 323.56C162.38 323.42 162.31 323.2 162.31 323.02C162.31 322.48 162.6 322.05 162.81 322.05C163.17 322.05 165.04 322.95 167.02 322.95C167.99 322.95 168.57 322.84 168.78 322.84C168.92 322.84 169.18 322.98 169.18 323.92C169.18 324.14 169.04 324.21 168.28 324.42C167.85 324.53 167.49 324.85 167.13 325.57L161.05 337.84C160.4 339.14 160.01 339.42 159.61 339.42C159.03 339.42 158.75 339.13 158.31 338.23L152.37 325.99C151.87 324.95 151.61 324.48 151.22 324.41C150.43 324.3 150.25 324.12 150.25 323.69C150.25 323.22 150.32 322.83 150.86 322.83C151.44 322.83 151.98 322.9 152.98 322.9C155.43 322.9 156.83 322.04 157.08 322.04C157.37 322.04 157.66 322.72 157.66 323.05C157.66 323.23 157.52 323.37 157.08 323.55C156.04 323.98 155.68 324.27 155.68 324.99C155.68 325.31 155.79 325.67 156.98 328.12L160.36 335.22Z" fill="white"/>
<path d="M172.88 325.76C172.88 325.33 172.74 325.22 170.97 325.22C170.68 325.22 170.57 325 170.57 324.61C170.57 324.07 170.68 324.03 170.89 323.93L175.14 322.06C175.46 321.92 175.64 321.84 175.79 321.84C176.04 321.84 176.4 322.42 176.4 322.92C176.4 323.21 175.9 323.39 175.9 324.29V334.8C175.9 336.67 176.01 336.82 178.24 337.46C178.49 337.53 178.6 337.82 178.6 338.11C178.6 338.61 178.46 338.97 178.02 338.97C177.48 338.97 176.04 338.5 174.38 338.5C172.72 338.5 171.28 338.97 170.74 338.97C170.31 338.97 170.16 338.61 170.16 338.11C170.16 337.82 170.27 337.53 170.52 337.46C172.75 336.81 172.86 336.67 172.86 334.8V325.76H172.88ZM174.57 313.52C175.69 313.52 176.62 314.46 176.62 315.57C176.62 316.68 175.68 317.62 174.57 317.62C173.45 317.62 172.52 316.68 172.52 315.57C172.52 314.46 173.45 313.52 174.57 313.52Z" fill="white"/>
<path d="M182.74 325.76C182.74 325.33 182.6 325.22 180.83 325.22C180.54 325.22 180.43 325 180.43 324.61C180.43 324.07 180.54 324.03 180.75 323.93L185 322.06C185.32 321.92 185.5 321.84 185.65 321.84C185.9 321.84 186.26 322.42 186.26 322.92C186.26 323.21 185.76 323.39 185.76 324.29V325.23C187.78 323.11 189.58 322.06 191.45 322.06C195.45 322.06 197.17 324.83 197.17 329.58V334.8C197.17 336.67 197.28 336.82 199.44 337.46C199.69 337.53 199.8 337.82 199.8 338.11C199.8 338.61 199.66 338.97 199.22 338.97C198.75 338.97 197.31 338.5 195.66 338.5C194.01 338.5 192.56 338.97 192.02 338.97C191.59 338.97 191.44 338.61 191.44 338.11C191.44 337.82 191.55 337.53 191.8 337.46C194.03 336.81 194.14 336.67 194.14 334.8V331.24C194.14 325.98 193.2 324.65 189.89 324.65C188.02 324.65 185.75 326.59 185.75 327.13V334.8C185.75 336.67 185.86 336.82 188.09 337.46C188.34 337.53 188.45 337.82 188.45 338.11C188.45 338.61 188.31 338.97 187.87 338.97C187.33 338.97 185.89 338.5 184.23 338.5C182.57 338.5 181.13 338.97 180.59 338.97C180.16 338.97 180.01 338.61 180.01 338.11C180.01 337.82 180.12 337.53 180.37 337.46C182.6 336.81 182.71 336.67 182.71 334.8V325.76H182.74Z" fill="white"/>
<path d="M217.19 325.04H215.79C215.07 325.04 214.42 325.11 213.95 325.22C214.56 326.01 214.81 326.98 214.81 327.88C214.81 331.84 211.28 333.86 207.97 333.86C207.39 333.86 206.46 333.72 205.74 333.5C205.16 333.82 204.34 334.44 204.34 335.3C204.34 336.02 204.84 336.74 208.62 336.96C213.8 337.25 216.86 337.72 216.86 341.1C216.86 344.84 211.96 348.52 206.57 348.52C203.22 348.52 199.44 347.22 199.44 343.91C199.44 340.99 202.39 339.34 203.8 338.98V338.91C202.83 338.73 201.32 337.79 201.32 336.61C201.32 335.17 203.34 333.77 204.52 333.12C202.54 332.04 201.03 330.67 201.06 328.12C201.1 324.66 203.98 322.07 207.68 322.07C209.59 322.07 211.06 322.5 212.5 323.44C214.05 323.08 215.27 322.9 217.18 322.9V325.04H217.19ZM205.24 339.47C204.12 339.76 202.25 341.09 202.25 343.43C202.25 345.73 205.13 346.78 206.93 346.78C211.29 346.78 213.84 344.08 213.84 342.35C213.84 340.33 212.15 339.94 209.38 339.76L205.24 339.47ZM207.94 332.13C210.28 332.13 211.79 330.26 211.79 327.95C211.79 325.64 210.28 323.77 207.94 323.77C205.53 323.77 204.09 325.64 204.09 327.95C204.09 330.26 205.53 332.13 207.94 332.13Z" fill="white"/>
<path d="M235.02 315.17H229.51C226.34 315.17 226.02 316.86 224.62 316.86C224.44 316.86 224.3 316.72 224.3 316.5C224.3 316.32 224.34 316.14 224.52 315.46L225.1 313.05C225.21 312.62 225.35 312.47 225.75 312.47C226.22 312.47 226.87 313.23 227.91 313.23H245.76C247.67 313.23 248.06 312.47 248.71 312.47C249 312.47 249.21 312.58 249.21 312.87C249.21 313.05 248.74 314.96 248.31 316.54C248.24 316.79 248.09 316.86 247.88 316.86C247.38 316.86 246.87 315.17 244.35 315.17H238.48V334.43C238.48 336.88 239.16 337.06 241.4 337.45C241.65 337.49 241.8 337.74 241.8 338.31C241.8 338.63 241.66 338.96 241.15 338.96C240.61 338.96 238.85 338.49 236.76 338.49C234.67 338.49 232.91 338.96 232.37 338.96C231.87 338.96 231.72 338.64 231.72 338.31C231.72 337.73 231.86 337.48 232.12 337.45C234.35 337.05 235.04 336.87 235.04 334.43V315.17H235.02Z" fill="white"/>
<path d="M246.43 325.76C246.43 325.33 246.29 325.22 244.52 325.22C244.23 325.22 244.12 325 244.12 324.61C244.12 324.07 244.23 324.03 244.44 323.93L248.47 322.09C248.79 321.95 249.08 321.84 249.26 321.84C249.4 321.84 249.44 321.98 249.44 322.56V325.87H249.51C250.52 323.82 252.79 322.05 255.16 322.05C255.81 322.05 256.24 322.19 256.24 322.63V324.83C256.24 325.15 256.13 325.3 255.52 325.3H253.9C251.49 325.3 249.44 326.85 249.44 328.65V335.38C249.44 336.6 249.55 336.86 252.79 337.47C253.04 337.54 253.11 337.87 253.11 338.12C253.11 338.59 253.07 338.98 252.61 338.98C252.21 338.98 249.55 338.51 247.93 338.51C246.27 338.51 244.83 338.98 244.29 338.98C243.86 338.98 243.71 338.62 243.71 338.12C243.71 337.83 243.82 337.54 244.07 337.47C246.3 336.82 246.41 336.68 246.41 334.81V325.76H246.43Z" fill="white"/>
<path d="M260.21 330.29C260.21 333.96 262.12 336.59 265.57 336.59C268.49 336.59 270.39 334.21 270.72 334.21C270.94 334.21 271.58 334.82 271.58 335.25C271.58 335.36 268.77 338.96 264.45 338.96C260.02 338.96 256.96 336.3 256.96 331.33C256.96 325.68 260.45 322.04 265.06 322.04C269.88 322.04 271.39 326.58 271.39 327.62C271.39 328.2 271.28 328.23 270.74 328.34L260.21 330.29ZM267.59 327.34C267.91 327.27 267.95 326.91 267.95 326.55C267.95 324.97 266.51 323.56 264.89 323.56C261.94 323.56 260.53 326.3 260.21 328.85L267.59 327.34Z" fill="white"/>
<path d="M276.99 330.29C276.99 333.96 278.9 336.59 282.35 336.59C285.27 336.59 287.17 334.21 287.5 334.21C287.72 334.21 288.36 334.82 288.36 335.25C288.36 335.36 285.55 338.96 281.23 338.96C276.8 338.96 273.74 336.3 273.74 331.33C273.74 325.68 277.23 322.04 281.84 322.04C286.66 322.04 288.17 326.58 288.17 327.62C288.17 328.2 288.06 328.23 287.52 328.34L276.99 330.29ZM284.37 327.34C284.69 327.27 284.73 326.91 284.73 326.55C284.73 324.97 283.29 323.56 281.67 323.56C278.72 323.56 277.31 326.3 276.99 328.85L284.37 327.34Z" fill="white"/>
<path d="M293.94 316.9V317.58H292.01V322.63H291.22V317.58H289.29V316.9H293.94Z" fill="white"/>
<path d="M294.64 316.9H295.75L297.4 321.75L299.04 316.9H300.15V322.64H299.41V319.25C299.41 319.13 299.41 318.94 299.42 318.67C299.43 318.4 299.43 318.11 299.43 317.8L297.79 322.64H297.02L295.37 317.8V317.98C295.37 318.12 295.37 318.33 295.38 318.62C295.39 318.91 295.39 319.12 295.39 319.25V322.64H294.65V316.9H294.64Z" fill="white"/>
</svg>
